<svg width="21" height="13" viewBox="0 0 21 13" fill="none" xmlns="http://www.w3.org/2000/svg">
<path d="M1.4059 12.0379C1.68786 12.3198 2.07024 12.4782 2.46894 12.4782C2.86763 12.4782 3.25001 12.3198 3.53197 12.0379L10.9747 4.59517L18.4175 12.0379C18.7011 12.3118 19.0809 12.4634 19.4751 12.46C19.8694 12.4565 20.2465 12.2984 20.5253 12.0196C20.8041 11.7408 20.9622 11.3637 20.9656 10.9695C20.969 10.5752 20.8175 10.1954 20.5436 9.91186L12.0378 1.40605C11.7558 1.12417 11.3734 0.96582 10.9747 0.96582C10.576 0.96582 10.1937 1.12417 9.91171 1.40605L1.4059 9.91186C1.12402 10.1938 0.965668 10.5762 0.965668 10.9749C0.965668 11.3736 1.12402 11.756 1.4059 12.0379Z" fill="white"/>
</svg>
