<svg width="31" height="32" viewBox="0 0 31 32" fill="none" xmlns="http://www.w3.org/2000/svg">
<path d="M15.4365 11.7813C13.0007 11.7813 11.0261 13.8418 11.0261 16.3835C11.0261 18.9253 13.0007 20.9857 15.4365 20.9857C17.8723 20.9857 19.8469 18.9253 19.8469 16.3835C19.8469 13.8418 17.8723 11.7813 15.4365 11.7813Z" fill="#00F0FF"/>
<path fill-rule="evenodd" clip-rule="evenodd" d="M0 1.80994C0 0.962691 0.658173 0.275879 1.47014 0.275879H28.6678C29.4798 0.275879 30.1379 0.962691 30.1379 1.80994V30.1901C30.1379 31.0373 29.4798 31.7242 28.6678 31.7242H1.47014C0.658173 31.7242 0 31.0373 0 30.1901V1.80994ZM6.61564 16.3835C6.61564 11.3001 10.5649 7.17916 15.4365 7.17916C20.3081 7.17916 24.2574 11.3001 24.2574 16.3835C24.2574 21.467 20.3081 25.5879 15.4365 25.5879C10.5649 25.5879 6.61564 21.467 6.61564 16.3835ZM24.2574 7.94619C25.0693 7.94619 25.7275 7.25938 25.7275 6.41213C25.7275 5.56488 25.0693 4.87807 24.2574 4.87807C23.4454 4.87807 22.7872 5.56488 22.7872 6.41213C22.7872 7.25938 23.4454 7.94619 24.2574 7.94619Z" fill="#00F0FF"/>
</svg>
