<svg width="32" height="32" viewBox="0 0 32 32" fill="none" xmlns="http://www.w3.org/2000/svg">
<path d="M29.6746 0.276099H2.87712C2.5759 0.27194 2.27679 0.326804 1.9969 0.437558C1.717 0.548311 1.4618 0.712784 1.24586 0.921584C1.02992 1.13038 0.857476 1.37942 0.738376 1.65447C0.619275 1.92952 0.55585 2.2252 0.551723 2.52462V29.4754C0.55585 29.7748 0.619275 30.0705 0.738376 30.3456C0.857476 30.6206 1.02992 30.8696 1.24586 31.0784C1.4618 31.2872 1.717 31.4517 1.9969 31.5625C2.27679 31.6732 2.5759 31.7281 2.87712 31.7239H29.6746C29.9758 31.7281 30.2749 31.6732 30.5548 31.5625C30.8347 31.4517 31.0899 31.2872 31.3059 31.0784C31.5218 30.8696 31.6942 30.6206 31.8133 30.3456C31.9324 30.0705 31.9959 29.7748 32 29.4754V2.52462C31.9959 2.2252 31.9324 1.92952 31.8133 1.65447C31.6942 1.37942 31.5218 1.13038 31.3059 0.921584C31.0899 0.712784 30.8347 0.548311 30.5548 0.437558C30.2749 0.326804 29.9758 0.27194 29.6746 0.276099ZM10.0906 26.5979H5.3449V12.4464H10.0906V26.5979ZM7.71775 10.4652C7.06326 10.4652 6.43557 10.2068 5.97277 9.74675C5.50998 9.28674 5.24998 8.66282 5.24998 8.01227C5.24998 7.36171 5.50998 6.7378 5.97277 6.27778C6.43557 5.81777 7.06326 5.55934 7.71775 5.55934C8.06529 5.52016 8.41723 5.55439 8.75054 5.65978C9.08385 5.76518 9.391 5.93937 9.65188 6.17094C9.91277 6.4025 10.1215 6.68623 10.2644 7.00355C10.4073 7.32086 10.4812 7.6646 10.4812 8.01227C10.4812 8.35993 10.4073 8.70367 10.2644 9.02098C10.1215 9.3383 9.91277 9.62203 9.65188 9.8536C9.391 10.0852 9.08385 10.2594 8.75054 10.3647C8.41723 10.4701 8.06529 10.5044 7.71775 10.4652ZM27.2068 26.5979H22.4611V19.0033C22.4611 17.1007 21.7809 15.8585 20.0566 15.8585C19.523 15.8624 19.0034 16.0288 18.5678 16.3352C18.1322 16.6417 17.8016 17.0734 17.6205 17.5724C17.4967 17.942 17.443 18.3312 17.4623 18.7203V26.5822H12.7166V12.4307H17.4623V14.4276C17.8934 13.684 18.5204 13.0715 19.2759 12.6559C20.0313 12.2402 20.8864 12.0374 21.7493 12.069C24.9131 12.069 27.2068 14.0974 27.2068 18.4529V26.5979Z" fill="#00F0FF"/>
</svg>
